<?xml version="1.0" encoding="utf-8"?>
<!-- Generator: Adobe Illustrator 21.0.2, SVG Export Plug-In . SVG Version: 6.00 Build 0)  -->
<svg version="1.1" id="Layer_1" xmlns="http://www.w3.org/2000/svg" xmlns:xlink="http://www.w3.org/1999/xlink" x="0px" y="0px"
	 viewBox="0 0 180 180" style="enable-background:new 0 0 180 180;" xml:space="preserve">
<polygon points="116.9,77.6 104.9,66.7 90,80.1 75.1,66.7 63.1,77.6 63.1,93.5 90,117.7 90,117.7 90,117.7 90,117.7 90,117.7 
	116.9,93.5 "/>
<path d="M117.6,123.3c-8.8,7.3-20.1,10.8-31.4,9.8l-16.8,16.9c17.7,6,37.5,4.1,53.7-5.9L117.6,123.3z"/>
<path d="M105.1,49.5c2.5,0.9,5,2.1,7.3,3.6c7.4,4.5,13,10.9,16.5,18.2L152,77c-2.4-11.7-8.2-22.8-17.3-31.9
	c-4.4-4.4-9.3-8-14.5-10.8L105.1,49.5z"/>
<path d="M132.4,81.6c2,10.2,0.4,21.2-5.5,30.8c-0.6,1-1.2,1.9-1.9,2.8l6.1,23c1.3-1.1,2.6-2.3,3.8-3.5c13.1-13.2,19.2-30.7,18.4-48
	L132.4,81.6z"/>
<path d="M62.3,56.9c9-7.6,20.8-11.1,32.3-9.8l16.6-16.8c-18-6.3-38.2-4.4-54.8,5.9L62.3,56.9z"/>
<path d="M75.5,130.7c-2.7-1-5.4-2.2-8-3.8c-7.6-4.6-13.3-11.3-16.8-18.8l-23-6.1c2.3,12.1,8.1,23.6,17.5,33c4.6,4.5,9.6,8.2,15,11.1
	L75.5,130.7z"/>
<path d="M47.5,97.7c-1.8-10-0.1-20.7,5.6-30.1c0.6-0.9,1.2-1.9,1.8-2.7l-6.4-22.7c-1.2,1-2.3,2.1-3.4,3.2
	c-12.8,12.9-19,30-18.4,46.9L47.5,97.7z"/>
</svg>
